<?xml version="1.0" standalone="no"?>
<!DOCTYPE svg PUBLIC "-//W3C//DTD SVG 20010904//EN"
 "http://www.w3.org/TR/2001/REC-SVG-20010904/DTD/svg10.dtd">
<svg version="1.0" xmlns="http://www.w3.org/2000/svg"
 width="1276.000000pt" height="1280.000000pt" viewBox="0 0 1276.000000 1280.000000"
 preserveAspectRatio="xMidYMid meet">
<metadata>
Created by potrace 1.15, written by Peter Selinger 2001-2017
</metadata>
<g transform="translate(0.000000,1280.000000) scale(0.100000,-0.100000)"
fill="#000000" stroke="none">
<path d="M4610 12790 c-426 -54 -800 -305 -996 -666 -21 -38 -39 -71 -40 -73
-2 -2 -25 19 -51 46 -201 205 -636 338 -1053 320 -423 -19 -706 -175 -785
-436 -15 -49 -22 -60 -34 -55 -9 4 -44 15 -78 25 -239 68 -549 -2 -752 -171
-64 -54 -134 -150 -153 -211 -9 -33 -14 -38 -32 -33 -35 11 -149 6 -199 -9
-255 -79 -453 -473 -433 -862 9 -185 56 -307 152 -394 l56 -51 -21 -36 c-145
-245 -186 -739 -87 -1023 31 -89 64 -140 124 -191 l50 -43 -19 -42 c-64 -145
-66 -439 -4 -643 29 -95 78 -186 131 -240 l51 -53 -14 -57 c-20 -79 -20 -323
0 -437 78 -461 294 -785 590 -886 45 -15 92 -22 171 -24 98 -3 110 -5 112 -21
1 -11 8 -98 15 -196 13 -195 8 -354 -16 -438 -9 -30 -20 -86 -25 -125 -5 -38
-27 -135 -50 -215 -32 -110 -44 -172 -50 -260 -4 -63 -15 -149 -25 -190 -20
-87 -15 -161 13 -216 l19 -37 -71 -47 c-165 -108 -247 -260 -217 -407 26 -136
133 -274 238 -307 60 -20 178 -23 216 -5 15 7 30 9 34 5 15 -14 -59 -350 -206
-941 -102 -412 -135 -567 -151 -715 -21 -189 -15 -173 -64 -167 -59 8 -155 -8
-223 -38 -169 -75 -305 -259 -370 -501 -23 -87 -26 -119 -27 -259 -1 -172 11
-237 61 -360 57 -136 171 -265 285 -321 149 -74 287 -138 350 -163 742 -291
2337 -563 3599 -613 757 -30 1683 59 2674 257 621 124 1144 265 1575 425 313
116 594 283 766 454 140 141 250 331 301 523 34 127 39 349 10 452 -45 163
-140 286 -264 343 -57 26 -84 32 -165 36 -77 4 -98 8 -98 19 0 8 -20 76 -44
151 -76 234 -152 508 -237 855 -37 152 -42 179 -29 187 47 29 257 83 740 190
852 189 1038 251 1396 467 472 284 888 689 1132 1103 118 201 181 356 242 594
90 353 123 647 124 1091 1 382 -15 582 -75 915 -107 598 -350 1167 -655 1530
-233 278 -579 455 -1005 515 -300 42 -808 2 -1064 -84 -33 -11 -63 -21 -66
-21 -3 0 -2 26 3 58 28 168 -35 414 -160 626 -29 48 -52 94 -52 100 0 7 -13
31 -30 54 -33 46 -121 93 -208 111 -75 15 -256 13 -327 -4 -33 -8 -63 -14 -67
-15 -3 0 -9 24 -13 53 -57 440 -368 841 -691 891 -76 11 -76 11 -89 50 -54
157 -371 279 -725 279 -219 -1 -389 -40 -523 -120 -32 -19 -59 -34 -61 -32 -1
2 -19 40 -41 84 -30 63 -56 98 -124 166 -168 167 -415 296 -741 387 -186 52
-289 67 -470 67 -176 -1 -237 -13 -308 -64 l-29 -20 -65 34 c-94 50 -208 75
-363 80 -71 2 -159 0 -195 -5z m5960 -3906 c248 -47 523 -177 682 -323 154
-141 268 -447 322 -866 95 -727 -11 -1474 -258 -1819 -51 -71 -335 -356 -451
-451 -218 -180 -420 -290 -632 -344 -360 -92 -998 -206 -1219 -218 l-111 -6
-7 124 c-3 68 -29 444 -56 834 -77 1107 -98 1415 -120 1770 -11 182 -22 373
-26 426 l-6 95 279 172 c425 261 631 376 853 478 139 63 335 131 420 144 72
12 226 4 330 -16z"/>
</g>
</svg>
